<svg xmlns="http://www.w3.org/2000/svg" enable-background="new 0 0 64 64" viewBox="0 0 64 64" id="schedule">
	<path d="M56.89,5.09h-5.27V1.62C51.62,0.73,50.89,0,50,0h-2.23c-0.89,0-1.62,0.73-1.62,1.62v3.47H17.85V1.62 c0-0.89-0.73-1.62-1.62-1.62H14c-0.89,0-1.62,0.73-1.62,1.62v3.47H7.13c-2.01,0-3.64,1.63-3.64,3.63v51.65c0,2,1.63,3.63,3.64,3.63
	h49.76c2,0,3.63-1.63,3.63-3.63V8.72C60.52,6.72,58.89,5.09,56.89,5.09z M48.01,58.2l-0.23-7.42c-0.03-0.94,0.32-1.83,0.97-2.51
	c0.66-0.68,1.54-1.06,2.49-1.06h7.75L48.01,58.2z M4.47,55.55V19.46h55.07v26.77h-8.29c-1.22,0-2.35,0.48-3.2,1.35
	c-0.85,0.87-1.29,2.02-1.25,3.23l0.25,8.05H4.47v-3.3C4.47,55.56,4.47,55.55,4.47,55.55z M47.14,1.62c0-0.35,0.28-0.63,0.63-0.63
	H50c0.35,0,0.63,0.28,0.63,0.63v7.92c0,0.35-0.28,0.63-0.63,0.63h-2.23c-0.35,0-0.63-0.28-0.63-0.63V1.62z M13.36,1.62
	c0-0.35,0.28-0.63,0.63-0.63h2.23c0.35,0,0.63,0.28,0.63,0.63v7.92c0,0.35-0.28,0.63-0.63,0.63H14c-0.35,0-0.63-0.28-0.63-0.63
	V1.62z M7.13,6.08h5.25v3.46c0,0.89,0.73,1.62,1.62,1.62h2.23c0.89,0,1.62-0.73,1.62-1.62V6.08h28.31v3.46
	c0,0.89,0.73,1.62,1.62,1.62H50c0.89,0,1.62-0.73,1.62-1.62V6.08h5.27c1.46,0,2.65,1.19,2.65,2.65v9.75H4.47V8.72
	C4.47,7.26,5.66,6.08,7.13,6.08z M56.89,63.02H7.13c-1.47,0-2.66-1.19-2.66-2.65v-0.52h43.08c0,0,0.01,0,0.02,0
	c0.03,0,0.06-0.01,0.09-0.02c0.03-0.01,0.06-0.01,0.09-0.02c0.04-0.02,0.07-0.04,0.1-0.06c0.02-0.01,0.04-0.02,0.06-0.04l0.01-0.01
	c0,0,0,0,0,0l11.63-11.63v12.3C59.53,61.83,58.35,63.02,56.89,63.02z"></path>
	<path d="M10.34 31.58h5.06c.66 0 1.19-.53 1.19-1.19v-5.06c0-.66-.53-1.19-1.19-1.19h-5.06c-.66 0-1.19.53-1.19 1.19v5.06C9.15 31.04 9.69 31.58 10.34 31.58zM10.14 25.33c0-.11.09-.21.21-.21h5.06c.11 0 .21.09.21.21v5.06c0 .11-.09.21-.21.21h-5.06c-.11 0-.21-.09-.21-.21V25.33zM23.02 31.58h5.06c.66 0 1.19-.53 1.19-1.19v-5.06c0-.66-.53-1.19-1.19-1.19h-5.06c-.66 0-1.19.53-1.19 1.19v5.06C21.83 31.04 22.36 31.58 23.02 31.58zM22.81 25.33c0-.11.09-.21.2-.21h5.06c.11 0 .2.09.2.21v5.06c0 .11-.09.21-.2.21h-5.06c-.11 0-.2-.09-.2-.21V25.33zM35.81 31.58h5.06c.66 0 1.19-.53 1.19-1.19v-5.06c0-.66-.53-1.19-1.19-1.19h-5.06c-.66 0-1.19.53-1.19 1.19v5.06C34.62 31.04 35.15 31.58 35.81 31.58zM35.6 25.33c0-.11.09-.21.21-.21h5.06c.11 0 .21.09.21.21v5.06c0 .11-.09.21-.21.21h-5.06c-.11 0-.21-.09-.21-.21V25.33zM48.6 31.58h5.06c.66 0 1.19-.53 1.19-1.19v-5.06c0-.66-.53-1.19-1.19-1.19H48.6c-.66 0-1.19.53-1.19 1.19v5.06C47.41 31.04 47.94 31.58 48.6 31.58zM48.39 25.33c0-.11.09-.21.21-.21h5.06c.11 0 .21.09.21.21v5.06c0 .11-.09.21-.21.21H48.6c-.11 0-.21-.09-.21-.21V25.33zM10.34 42.61h5.06c.66 0 1.19-.53 1.19-1.19v-5.06c0-.66-.53-1.19-1.19-1.19h-5.06c-.66 0-1.19.53-1.19 1.19v5.06C9.15 42.08 9.69 42.61 10.34 42.61zM10.14 36.36c0-.11.09-.21.21-.21h5.06c.11 0 .21.09.21.21v5.06c0 .11-.09.21-.21.21h-5.06c-.11 0-.21-.09-.21-.21V36.36zM23.02 42.61h5.06c.66 0 1.19-.53 1.19-1.19v-5.06c0-.66-.53-1.19-1.19-1.19h-5.06c-.66 0-1.19.53-1.19 1.19v5.06C21.83 42.08 22.36 42.61 23.02 42.61zM22.81 36.36c0-.11.09-.21.2-.21h5.06c.11 0 .2.09.2.21v5.06c0 .11-.09.21-.2.21h-5.06c-.11 0-.2-.09-.2-.21V36.36zM23.02 54.82h5.06c.66 0 1.19-.53 1.19-1.19v-5.06c0-.66-.53-1.19-1.19-1.19h-5.06c-.66 0-1.19.53-1.19 1.19v5.06C21.83 54.29 22.36 54.82 23.02 54.82zM22.81 48.57c0-.11.09-.21.2-.21h5.06c.11 0 .2.09.2.21v5.06c0 .11-.09.21-.2.21h-5.06c-.11 0-.2-.09-.2-.21V48.57zM35.81 42.61h5.06c.66 0 1.19-.53 1.19-1.19v-5.06c0-.66-.53-1.19-1.19-1.19h-5.06c-.66 0-1.19.53-1.19 1.19v5.06C34.62 42.08 35.15 42.61 35.81 42.61zM35.6 36.36c0-.11.09-.21.21-.21h5.06c.11 0 .21.09.21.21v5.06c0 .11-.09.21-.21.21h-5.06c-.11 0-.21-.09-.21-.21V36.36zM35.81 54.44h5.06c.66 0 1.19-.53 1.19-1.19V48.2c0-.66-.53-1.19-1.19-1.19h-5.06c-.66 0-1.19.53-1.19 1.19v5.06C34.62 53.91 35.15 54.44 35.81 54.44zM35.6 48.2c0-.11.09-.21.21-.21h5.06c.11 0 .21.09.21.21v5.06c0 .11-.09.21-.21.21h-5.06c-.11 0-.21-.09-.21-.21V48.2zM48.6 42.61h5.06c.66 0 1.19-.53 1.19-1.19v-5.06c0-.66-.53-1.19-1.19-1.19H48.6c-.66 0-1.19.53-1.19 1.19v5.06C47.41 42.08 47.94 42.61 48.6 42.61zM48.39 36.36c0-.11.09-.21.21-.21h5.06c.11 0 .21.09.21.21v5.06c0 .11-.09.21-.21.21H48.6c-.11 0-.21-.09-.21-.21V36.36zM16.45 47.27c-.19-.19-.5-.19-.7 0l-2.76 2.76-2.76-2.76c-.19-.19-.5-.19-.7 0-.19.19-.19.5 0 .7l2.76 2.76-2.76 2.76c-.19.19-.19.5 0 .7.1.1.22.14.35.14.13 0 .25-.05.35-.14l2.76-2.76 2.76 2.76c.1.1.22.14.35.14.13 0 .25-.05.35-.14.19-.19.19-.5 0-.7l-2.76-2.76 2.76-2.76C16.64 47.77 16.64 47.46 16.45 47.27z"></path>
	<path d="M37.49,52.56c0.09,0.09,0.22,0.14,0.35,0.14c0.01,0,0.01,0,0.02,0c0.14-0.01,0.27-0.07,0.36-0.18l2.49-2.97
	c0.17-0.21,0.15-0.52-0.06-0.69c-0.21-0.17-0.52-0.15-0.69,0.06l-2.14,2.55l-0.86-0.86c-0.19-0.19-0.5-0.19-0.7,0s-0.19,0.5,0,0.7
	L37.49,52.56z"></path>
</svg>