<svg width="23" height="25" viewBox="0 0 23 25" fill="none" xmlns="http://www.w3.org/2000/svg">
    <path d="M21.1044 11.58L11.5123 21.1722C9.61741 23.067 6.58337 23.4057 4.56987 21.7548C2.26491 19.8669 2.1898 16.401 4.31132 14.2795L15.5173 3.0735C16.705 1.88581 18.6119 1.63492 19.8749 2.66217C21.3321 3.84745 21.3812 6.01808 20.0485 7.35083L10.5289 16.8705C10.0302 17.3691 9.22583 17.3807 8.74137 16.8963C8.2569 16.4118 8.2685 15.6074 8.76715 15.1088L16.7002 7.17574C17.0719 6.80402 17.0807 6.19627 16.7195 5.83512C16.3584 5.47397 15.7506 5.48274 15.3789 5.85446L7.57279 13.6606C6.38511 14.8483 6.13421 16.7551 7.16146 18.0181C8.34675 19.4754 10.5174 19.5245 11.8501 18.1918L21.2156 8.82624C23.1105 6.93138 23.4491 3.89734 21.7983 1.88384C19.9016 -0.429927 16.4445 -0.496231 14.323 1.62529L3.19857 12.7497C0.596532 15.3517 0.116277 19.5315 2.39073 22.2956C5.01674 25.4656 9.76007 25.5669 12.6794 22.6476L22.4257 12.9013C22.7974 12.5296 22.8062 11.9218 22.4451 11.5607C22.0839 11.1995 21.4762 11.2083 21.1044 11.58Z" fill="#FFFFFF"/>
</svg>