<svg xmlns="http://www.w3.org/2000/svg" viewBox="0 0 64 64" id="doctor-search" fill="#000000"><g data-name="Layer 2"><path d="M3.546 38.662a28.6 28.6 0 0 0 6.663 2.394 1 1 0 1 0 .44-1.952 26.665 26.665 0 0 1-5.65-1.956V31.87c0-3.395 3.232-6.447 7.902-7.524 1.451.834 2.363-1.236.729-1.894a8.373 8.373 0 0 1-2.926-4.397.999.999 0 0 0-.955-.705h-.59a1.257 1.257 0 0 1-1.25-1.26 8.553 8.553 0 0 1 .059-1.47.996.996 0 0 0 1.653-.355c.151-.427.304-.816.448-1.15.482-1.226 1.6-2.899 2.32-2.885 1.496-.023 2.183.734 4.03.69 1.84.054 2.536-.717 4.026-.69.795.1 1.531 1.143 2.01 2.005a1 1 0 0 0 1.368.384 1.006 1.006 0 0 0 1.495-.869V9.3c0-3.612-2.664-6.55-5.94-6.55H13.62c-3.275 0-5.94 2.938-5.94 6.55v2.775a3.255 3.255 0 0 0-1.77 2.885v1.13a3.26 3.26 0 0 0 3.124 3.258 11.204 11.204 0 0 0 2.003 3.442C6.225 24.36 3 27.91 3 31.87v5.9a1 1 0 0 0 .547.892ZM9.679 9.3c0-2.509 1.767-4.55 3.94-4.55h5.76c2.418-.04 4.189 2.548 3.94 5.169a3.794 3.794 0 0 0-3.545-1.685c-1.301.142-1.919.699-3.35.686-1.402.009-2.054-.522-3.295-.68a3.603 3.603 0 0 0-3.45 1.557Z"></path><path d="M11.999 42.87v5.9a1 1 0 0 0 .546.891c3.332 1.995 11.55 3.917 17.282 2.758a1 1 0 0 0-.297-1.978A27.53 27.53 0 0 1 14 48.15V42.87c0-3.398 3.239-6.454 7.916-7.527a7.154 7.154 0 0 0 7.163.002 7.764 7.764 0 0 0 .91.196.996.996 0 0 0 .815-1.556 10.733 10.733 0 0 0 2.168-3.637 3.26 3.26 0 0 0 3.118-3.258v-1.13a3.262 3.262 0 0 0-1.775-2.895v-2.762c0-3.613-2.663-6.553-5.936-6.553h-5.759c-3.273 0-5.936 2.94-5.936 6.553v2.77a3.255 3.255 0 0 0-1.774 2.887v1.13a3.26 3.26 0 0 0 3.124 3.258 11.212 11.212 0 0 0 2.006 3.442c-4.813 1.569-8.04 5.12-8.04 9.08Zm6.684-22.567c0-2.51 1.765-4.553 3.936-4.553h5.759c2.414-.04 4.184 2.545 3.936 5.167a3.747 3.747 0 0 0-3.474-1.681c-1.33.126-1.952.694-3.415.68-1.466.017-2.1-.562-3.432-.685a3.592 3.592 0 0 0-3.31 1.571Zm.066 8.047h-.59a1.257 1.257 0 0 1-1.25-1.26 8.134 8.134 0 0 1 .06-1.473.996.996 0 0 0 1.655-.35c1.082-2.721 1.787-4.149 3.272-4.037a14.063 14.063 0 0 0 3.529.686c1.842.053 2.54-.706 4.025-.686.552.067 1.647.69 2.93 4.057a.996.996 0 0 0 1.65.33 8.072 8.072 0 0 1 .059 1.473 1.257 1.257 0 0 1-1.25 1.26h-.59a1 1 0 0 0-.958.713c-.423 1.897-2.652 5.475-5.792 5.247-3.03.24-5.323-3.21-5.795-5.255a1 1 0 0 0-.955-.705Z"></path><path d="M19.999 46.75a1 1 0 0 0 1-1v-2h2a1 1 0 0 0 0-2h-2v-2a1 1 0 0 0-2 0v2h-2a1 1 0 0 0 0 2h2v2a1 1 0 0 0 1 1zm9.112-33.96a.998.998 0 0 0 1.137-.843A4.122 4.122 0 0 1 34.12 8.19h5.75c2.413-.04 4.186 2.546 3.94 5.17a3.768 3.768 0 0 0-3.577-1.674c-1.286.157-1.885.687-3.323.674-1.914.012-3.283-1.253-5.097-.434a1 1 0 0 0 .853 1.808 2.595 2.595 0 0 1 1.647.173 8.23 8.23 0 0 0 5.192.003c1.768-.654 2.478-.03 3.643 2.151a16.585 16.585 0 0 1 .726 1.672.997.997 0 0 0 1.656.328 8.179 8.179 0 0 1 .06 1.48 1.261 1.261 0 0 1-1.26 1.259h-.58a1 1 0 0 0-.955.705 8.322 8.322 0 0 1-2.932 4.391c-.853.843-2.973.446-2.8 1.934a1.002 1.002 0 0 0 1.148.827c3.02-.29 5.578-3.611 6.256-5.86a3.263 3.263 0 0 0 3.123-3.257v-1.13a3.223 3.223 0 0 0-1.78-2.895V12.75c0-3.617-2.665-6.56-5.94-6.56h-5.75a6.101 6.101 0 0 0-5.85 5.463 1 1 0 0 0 .842 1.136zm.388 30.46c-.155 11.023 12.411 18.21 21.784 12.518l4.599 4.6a2.994 2.994 0 0 0 4.234-4.235l-4.39-4.39C62.694 42.413 55.722 28.64 44 28.75a14.516 14.516 0 0 0-14.5 14.5zm29.207 14.301c.929.92-.494 2.308-1.41 1.402l-4.33-4.33a14.604 14.604 0 0 0 1.474-1.337zM56.499 43.25a12.514 12.514 0 0 1-12.5 12.5c-16.583-.687-16.578-24.316 0-25a12.514 12.514 0 0 1 12.5 12.5z"></path><path d="M33.499 43.25a10.512 10.512 0 0 0 10.5 10.5c13.93-.577 13.926-20.425 0-21a10.512 10.512 0 0 0-10.5 10.5Zm19 0a8.51 8.51 0 0 1-8.5 8.5c-11.26-.427-11.258-16.574 0-17a8.51 8.51 0 0 1 8.5 8.5Z"></path></g></svg>