<svg xmlns="http://www.w3.org/2000/svg" width="31" height="30" id="settings">
        <path fill-rule="evenodd" d="M13.689 29.987a.538.538 0 0 1-.521-.406l-.926-3.703a11.69 11.69 0 0 1-2.119-.898L6.83 26.957a.54.54 0 0 1-.656-.08l-2.559-2.559a.537.537 0 0 1-.08-.656l1.977-3.289a11.33 11.33 0 0 1-.881-2.117l-3.723-.932a.539.539 0 0 1-.408-.52v-3.615c0-.248.17-.463.408-.521l3.701-.924c.227-.729.529-1.439.9-2.123L3.532 6.328a.54.54 0 0 1 .08-.658l2.555-2.555a.532.532 0 0 1 .658-.08l3.293 1.975a11.52 11.52 0 0 1 2.115-.879l.93-3.723A.539.539 0 0 1 13.684 0h3.615c.246 0 .463.168.521.408l.926 3.705a11.88 11.88 0 0 1 2.117.895l3.297-1.979a.55.55 0 0 1 .656.082l2.555 2.555a.537.537 0 0 1 .082.658l-1.977 3.297c.363.676.658 1.385.877 2.109l3.727.934c.24.059.408.275.408.521v3.611a.536.536 0 0 1-.408.521l-3.727.934c-.219.73-.514 1.439-.875 2.111l1.979 3.295a.537.537 0 0 1-.082.658l-2.555 2.559a.546.546 0 0 1-.656.082l-3.297-1.979c-.68.371-1.391.67-2.119.898l-.922 3.703a.54.54 0 0 1-.523.406l-3.614.003zm-3.576-6.168c.092 0 .186.023.27.072.789.455 1.615.805 2.453 1.037a.547.547 0 0 1 .377.391l.898 3.592 2.773-.002.896-3.594a.54.54 0 0 1 .375-.387 10.61 10.61 0 0 0 2.453-1.039c.17-.1.377-.096.545.004l3.203 1.924 1.963-1.967-1.924-3.199a.54.54 0 0 1-.006-.547c.443-.768.783-1.586 1.014-2.439a.536.536 0 0 1 .389-.381l3.621-.908v-2.771l-3.621-.906a.538.538 0 0 1-.389-.381 10.322 10.322 0 0 0-1.014-2.441.542.542 0 0 1 .006-.545l1.92-3.201-1.961-1.961-3.203 1.922a.526.526 0 0 1-.545.004 10.766 10.766 0 0 0-2.453-1.037.533.533 0 0 1-.375-.387l-.898-3.596h-2.773l-.904 3.617a.54.54 0 0 1-.381.389c-.85.23-1.672.572-2.445 1.016a.524.524 0 0 1-.545-.006l-3.199-1.92-1.961 1.963 1.92 3.197a.536.536 0 0 1 .004.547 10.737 10.737 0 0 0-1.039 2.457.538.538 0 0 1-.389.377l-3.592.896v2.773l3.617.906a.538.538 0 0 1 .389.381c.23.848.57 1.67 1.018 2.443a.536.536 0 0 1-.006.547l-1.92 3.195 1.963 1.965 3.199-1.922a.536.536 0 0 1 .277-.078zm5.385-11.902a3.08 3.08 0 0 0-3.076 3.076 3.08 3.08 0 0 0 3.076 3.076 3.079 3.079 0 0 0 3.072-3.076 3.079 3.079 0 0 0-3.072-3.076zm0 7.229a4.156 4.156 0 0 1-4.152-4.152 4.156 4.156 0 0 1 4.152-4.152 4.154 4.154 0 0 1 4.148 4.152 4.154 4.154 0 0 1-4.148 4.152z"></path>
    </svg>